<svg width="200" height="200" viewBox="0 0 200 200" fill="none" xmlns="http://www.w3.org/2000/svg">
<g filter="url(#filter0_d_2065_126)">
<path d="M26.4851 66.7228C25.1189 65.3491 26.3087 63.0297 28.2214 63.338L80.6543 71.7899C81.5097 71.9278 82.3566 71.4992 82.7521 70.7283L106.993 23.4734C107.877 21.7496 110.451 22.1644 110.749 24.0788L118.913 76.5572C119.046 77.4134 119.716 78.0864 120.571 78.2243L173.004 86.6762C174.917 86.9845 175.317 89.5603 173.589 90.4352L126.202 114.417C125.429 114.808 124.995 115.653 125.129 116.509L133.293 168.987C133.591 170.901 131.265 172.079 129.899 170.705L92.4476 133.048C91.8366 132.434 90.8995 132.282 90.1264 132.674L42.7394 156.655C41.0107 157.53 39.1725 155.682 40.0568 153.958L64.2977 106.703C64.6932 105.932 64.5472 104.994 63.9362 104.38L26.4851 66.7228Z" fill="#C4C4C4"/>
<path d="M26.4851 66.7228C25.1189 65.3491 26.3087 63.0297 28.2214 63.338L80.6543 71.7899C81.5097 71.9278 82.3566 71.4992 82.7521 70.7283L106.993 23.4734C107.877 21.7496 110.451 22.1644 110.749 24.0788L118.913 76.5572C119.046 77.4134 119.716 78.0864 120.571 78.2243L173.004 86.6762C174.917 86.9845 175.317 89.5603 173.589 90.4352L126.202 114.417C125.429 114.808 124.995 115.653 125.129 116.509L133.293 168.987C133.591 170.901 131.265 172.079 129.899 170.705L92.4476 133.048C91.8366 132.434 90.8995 132.282 90.1264 132.674L42.7394 156.655C41.0107 157.53 39.1725 155.682 40.0568 153.958L64.2977 106.703C64.6932 105.932 64.5472 104.994 63.9362 104.38L26.4851 66.7228Z" fill="url(#paint0_linear_2065_126)"/>
</g>
<defs>
<filter id="filter0_d_2065_126" x="0.896118" y="0.385254" width="198.791" height="198.916" filterUnits="userSpaceOnUse" color-interpolation-filters="sRGB">
<feFlood flood-opacity="0" result="BackgroundImageFix"/>
<feColorMatrix in="SourceAlpha" type="matrix" values="0 0 0 0 0 0 0 0 0 0 0 0 0 0 0 0 0 0 127 0" result="hardAlpha"/>
<feOffset dy="3"/>
<feGaussianBlur stdDeviation="12.5"/>
<feColorMatrix type="matrix" values="0 0 0 0 0 0 0 0 0 0 0 0 0 0 0 0 0 0 0.25 0"/>
<feBlend mode="normal" in2="BackgroundImageFix" result="effect1_dropShadow_2065_126"/>
<feBlend mode="normal" in="SourceGraphic" in2="effect1_dropShadow_2065_126" result="shape"/>
</filter>
<linearGradient id="paint0_linear_2065_126" x1="88.2581" y1="-1.74181" x2="144.258" y2="213.258" gradientUnits="userSpaceOnUse">
<stop offset="0.0124025" stop-color="#C16944"/>
<stop offset="0.479167" stop-color="#F5D528"/>
<stop offset="1" stop-color="#DF6D1A"/>
</linearGradient>
</defs>
</svg>
